<svg width="512" height="512" viewBox="0 0 512 512" fill="none" xmlns="http://www.w3.org/2000/svg" xmlns:xlink="http://www.w3.org/1999/xlink"><rect id="r4" width="470" height="470" x="21" y="21" rx="360" fill="#6A75A0" stroke="#FFFFFF" stroke-width="42" stroke-opacity="100" paint-order="stroke"></rect><rect width="470" height="470" x="21" y="21" fill="url(#glare)" rx="360" style="mix-blend-mode: overlay;"></rect><clipPath id="clip"><use xlink:href="#r4"></use></clipPath><defs><linearGradient id="linearGradient" gradientUnits="userSpaceOnUse" gradientTransform="rotate(45)" style="transform-origin:center center;"><stop stop-color="#8e2de2"></stop><stop offset="1" stop-color="#4a00e0"></stop></linearGradient><radialGradient id="glare" cx="0" cy="0" r="1" gradientUnits="userSpaceOnUse" gradientTransform="translate(256) rotate(90) scale(512)"><stop stop-color="white"></stop><stop offset="1" stop-color="white" stop-opacity="0"></stop></radialGradient></defs><g transform="rotate(0, 256, 256)"><svg xmlns="http://www.w3.org/2000/svg" xmlns:xlink="http://www.w3.org/1999/xlink" aria-hidden="true" role="img" class=" iconify iconify--mdi" x="152" y="152" style="font-size: 208px; color: rgb(255, 255, 255);" width="1em" height="1em" viewBox="0 0 24 24"><path fill="currentColor" d="M9.46 6.28L11.05 9c-2.58.26-4.55 2.41-4.55 5a5 5 0 0 0 5 5c2.05 0 3.81-1.23 4.58-3H13.5v-2h8v2h-2.25a8.05 8.05 0 0 1-2.46 4h2.71v2h-16v-2h2.71a8 8 0 0 1-2.71-6c0-3.63 2.46-6.8 5.96-7.72m3.28-4.21l.76 1.3l.86-.5l3.5 6.06l-3.47 2l-3.5-6.06l.87-.5l-.76-1.3z"></path></svg></g></svg>